<?xml version="1.0" encoding="UTF-8" standalone="no"?>
<!-- Created with Inkscape (http://www.inkscape.org/) -->

<svg
   version="1.1"
   id="svg2"
   width="1365.3333"
   height="1365.3333"
   viewBox="0 0 1365.3333 1365.3333"
   sodipodi:docname="Icon-1024x1024.ai"
   xmlns:inkscape="http://www.inkscape.org/namespaces/inkscape"
   xmlns:sodipodi="http://sodipodi.sourceforge.net/DTD/sodipodi-0.dtd"
   xmlns="http://www.w3.org/2000/svg"
   xmlns:svg="http://www.w3.org/2000/svg">
  <defs
     id="defs6">
    <clipPath
       clipPathUnits="userSpaceOnUse"
       id="clipPath18">
      <path
         d="M 0,1024 H 1024 V 0 H 0 Z"
         id="path16" />
    </clipPath>
    <clipPath
       clipPathUnits="userSpaceOnUse"
       id="clipPath30">
      <path
         d="m 296.558,562.354 c 0,-1.429 0.04,-2.877 0.083,-4.301 v 0 C 241.167,547.429 200.357,498.702 200.357,441.451 v 0 c 0,-65.516 53.318,-118.829 118.831,-118.829 v 0 h 91.003 c 4.903,0 8.88,3.984 8.88,8.888 v 0 138.862 l 17.38,16.721 c 1.734,1.655 2.764,3.984 2.764,6.41 v 0 21.195 h 23.738 c 2.283,0 4.446,0.876 6.079,2.408 v 0 l 27.559,25.801 77.586,-73.102 V 331.51 c 0,-4.904 3.98,-8.888 8.862,-8.888 v 0 H 706.71 c 65.514,0 118.829,53.313 118.829,118.829 v 0 c 0,65.532 -53.315,118.815 -118.829,118.815 v 0 c -1.782,0 -3.569,-0.039 -5.381,-0.11 v 0 c -5.581,41.028 -41.184,73.005 -83.479,73.005 v 0 c -9.284,0 -18.398,-1.505 -27.139,-4.542 v 0 c -25.55,53.92 -79.426,88.316 -139.551,88.316 v 0 c -85.258,0 -154.602,-69.353 -154.602,-154.581 M 218.155,441.451 c 0,51.089 38.244,94.188 88.942,100.221 v 0 c 4.758,0.58 8.195,4.812 7.832,9.577 v 0 c -0.286,3.679 -0.581,7.355 -0.581,11.105 v 0 c 0,75.444 61.339,136.76 136.812,136.76 v 0 c 55.801,0 105.555,-33.49 126.62,-85.333 v 0 c 0.906,-2.238 2.769,-4.051 4.991,-4.919 v 0 c 2.283,-0.905 4.815,-0.82 7.058,0.225 v 0 c 8.909,4.167 18.341,6.282 28.021,6.282 v 0 c 35.88,0 65.663,-29.207 66.393,-65.114 v 0 c 0.066,-2.491 1.149,-4.878 3.083,-6.508 v 0 c 1.887,-1.659 4.333,-2.437 6.911,-2.101 v 0 c 4.738,0.567 8.721,0.836 12.473,0.836 v 0 c 55.706,0 100.991,-45.309 100.991,-101.031 v 0 c 0,-55.706 -45.285,-101.013 -100.991,-101.013 v 0 H 591.966 v 112.566 l 16.347,-15.409 c 3.565,-3.416 9.226,-3.257 12.577,0.349 v 0 c 3.374,3.585 3.228,9.208 -0.338,12.574 v 0 l -31.079,29.305 c -0.129,0.086 -0.23,0.206 -0.374,0.355 v 0 l -86.391,81.392 c -3.393,3.215 -8.732,3.259 -12.176,0.026 v 0 l -31.07,-29.071 H 430.28 c -4.897,0 -8.884,-4.019 -8.884,-8.919 v 0 -26.328 L 372.613,450.44 c -3.523,-3.397 -3.627,-9.07 -0.26,-12.574 v 0 c 1.767,-1.819 4.093,-2.741 6.438,-2.741 v 0 c 2.201,0 4.462,0.832 6.161,2.49 v 0 l 16.309,15.68 V 340.438 h -82.073 c -55.719,0 -101.033,45.307 -101.033,101.013"
         id="path28" />
    </clipPath>
  </defs>
  <sodipodi:namedview
     id="namedview4"
     pagecolor="#ffffff"
     bordercolor="#000000"
     borderopacity="0.25"
     inkscape:showpageshadow="2"
     inkscape:pageopacity="0.0"
     inkscape:pagecheckerboard="0"
     inkscape:deskcolor="#d1d1d1" />
  <g
     id="g8"
     inkscape:groupmode="layer"
     inkscape:label="Icon-1024x1024"
     transform="matrix(1.3333333,0,0,-1.3333333,0,1365.3333)">
    <path
       d="M 0,0 H 1024 V 1024 H 0 Z"
       style="fill:#00bcd3;fill-opacity:1;fill-rule:nonzero;stroke:none"
       id="path10" />
    <g
       id="g12">
      <g
         id="g14"
         clip-path="url(#clipPath18)">
        <g
           id="g20"
           transform="translate(296.5581,562.3545)">
          <path
             d="m 0,0 c 0,-1.43 0.04,-2.878 0.083,-4.302 -55.475,-10.624 -96.284,-59.35 -96.284,-116.601 0,-65.516 53.318,-118.829 118.831,-118.829 h 91.003 c 4.903,0 8.879,3.984 8.879,8.887 v 138.863 l 17.381,16.72 c 1.733,1.656 2.764,3.985 2.764,6.41 v 21.196 h 23.738 c 2.283,0 4.446,0.876 6.079,2.407 l 27.559,25.802 77.587,-73.102 v -138.296 c 0,-4.903 3.979,-8.887 8.86,-8.887 h 123.672 c 65.515,0 118.829,53.313 118.829,118.829 0,65.531 -53.314,118.815 -118.829,118.815 -1.782,0 -3.569,-0.039 -5.381,-0.11 -5.581,41.027 -41.185,73.005 -83.479,73.005 -9.285,0 -18.398,-1.505 -27.139,-4.542 -25.55,53.92 -79.426,88.315 -139.551,88.315 C 69.344,154.58 0,85.228 0,0 m -78.403,-120.903 c 0,51.089 38.244,94.187 88.942,100.22 4.758,0.58 8.195,4.813 7.832,9.578 C 18.085,-7.426 17.79,-3.751 17.79,0 c 0,75.443 61.339,136.759 136.812,136.759 55.801,0 105.555,-33.489 126.62,-85.332 0.905,-2.239 2.769,-4.051 4.99,-4.92 2.284,-0.904 4.816,-0.819 7.059,0.225 8.909,4.167 18.341,6.283 28.021,6.283 35.88,0 65.663,-29.207 66.393,-65.115 0.065,-2.49 1.149,-4.878 3.082,-6.507 1.888,-1.66 4.334,-2.438 6.913,-2.101 4.737,0.566 8.72,0.836 12.472,0.836 55.706,0 100.991,-45.309 100.991,-101.031 0,-55.706 -45.285,-101.014 -100.991,-101.014 H 295.408 v 112.566 l 16.347,-15.408 c 3.565,-3.417 9.226,-3.258 12.578,0.349 3.374,3.585 3.227,9.208 -0.339,12.574 l -31.079,29.305 c -0.129,0.086 -0.229,0.206 -0.373,0.354 l -86.393,81.393 c -3.391,3.215 -8.731,3.259 -12.174,0.026 L 162.904,-29.83 h -29.182 c -4.897,0 -8.884,-4.019 -8.884,-8.919 v -26.327 l -48.783,-46.838 c -3.523,-3.398 -3.627,-9.07 -0.26,-12.574 1.767,-1.82 4.093,-2.741 6.438,-2.741 2.2,0 4.462,0.832 6.16,2.49 l 16.31,15.679 V -221.917 H 22.63 c -55.719,0 -101.033,45.308 -101.033,101.014"
             style="fill:#f5f5f5;fill-opacity:1;fill-rule:nonzero;stroke:none"
             id="path22" />
        </g>
      </g>
    </g>
    <g
       id="g24">
      <g
         id="g26"
         clip-path="url(#clipPath30)">
        <path
           d="M 200.357,716.935 H 825.539 V 322.622 H 200.357 Z"
           style="fill:#f5f5f5;fill-opacity:1;fill-rule:nonzero;stroke:none"
           id="path32" />
      </g>
    </g>
  </g>
</svg>
